PathFileType	4	(X/Y/Z)	C:\Users\Basilio\Documents\Thesis Gigler\squatting_fais\c3dfiles\044\SJ_pre1\markers_experimental.trc
DataRate	CameraRate	NumFrames	NumMarkers	Units	OrigDataRate	OrigDataStartFrame	OrigNumFrames
200.000000	200.000000	4	63	mm	200.000000	176	1409
Frame#	Time	FHD			LBHD			RBHD			C7			T10			CLAV			LSHO			LUUPA			LMUPA			LDUPA			LLEP			LMEP			LRAD			LUL			LRFIN			RSHO			RUPA1			RMUPA			RDUPA			RLEP			RMEP			RRAD			RUL			RUFIN			LASI			RASI			USACR			LSACR			RSACR			LTHI1			LTHI2			LTHI3			LTHI4			LLFC			LMFC			LTIB1			LTIB2			LTIB3			LTIB4			LLMAL			LMMAL			LHEE			LMT1			LMT2			LMT5			RTHI			RTHI2			RTHI3			RTHI4			RLFC			RMFC			RTIB1			RTIB2			RTIB3			RTIB4			RLMAL			RMMAL			RHEE			RMT1			RMT2			RMT5			*61			*62			
		X1	Y1	Z1	X2	Y2	Z2	X3	Y3	Z3	X4	Y4	Z4	X5	Y5	Z5	X6	Y6	Z6	X7	Y7	Z7	X8	Y8	Z8	X9	Y9	Z9	X10	Y10	Z10	X11	Y11	Z11	X12	Y12	Z12	X13	Y13	Z13	X14	Y14	Z14	X15	Y15	Z15	X16	Y16	Z16	X17	Y17	Z17	X18	Y18	Z18	X19	Y19	Z19	X20	Y20	Z20	X21	Y21	Z21	X22	Y22	Z22	X23	Y23	Z23	X24	Y24	Z24	X25	Y25	Z25	X26	Y26	Z26	X27	Y27	Z27	X28	Y28	Z28	X29	Y29	Z29	X30	Y30	Z30	X31	Y31	Z31	X32	Y32	Z32	X33	Y33	Z33	X34	Y34	Z34	X35	Y35	Z35	X36	Y36	Z36	X37	Y37	Z37	X38	Y38	Z38	X39	Y39	Z39	X40	Y40	Z40	X41	Y41	Z41	X42	Y42	Z42	X43	Y43	Z43	X44	Y44	Z44	X45	Y45	Z45	X46	Y46	Z46	X47	Y47	Z47	X48	Y48	Z48	X49	Y49	Z49	X50	Y50	Z50	X51	Y51	Z51	X52	Y52	Z52	X53	Y53	Z53	X54	Y54	Z54	X55	Y55	Z55	X56	Y56	Z56	X57	Y57	Z57	X58	Y58	Z58	X59	Y59	Z59	X60	Y60	Z60	X61	Y61	Z61	X62	Y62	Z62	X63	Y63	Z63	

177	0.88	-228.5479125976563	1755.747314453125	-883.459899902344	-357.9822692871094	1723.665771484375	-968.7775878906252	-410.1045227050782	1705.947998046875	-811.990417480469	-437.2361145019532	1534.52294921875	-901.566833496094	-469.5622558593751	1233.144775390625	-907.8643798828127	-301.5522460937501	1485.779296875	-892.077819824219	-337.7470397949219	1531.8408203125	-1075.412231445313	-413.8010253906251	1360.342895507813	-1219.598510742188	-381.5003967285157	1321.759399414063	-1213.928833007813	-424.8989562988282	1299.51318359375	-1250.825927734375	-423.9073181152345	1240.362060546875	-1265.127807617188	-490.3082885742189	1232.903686523438	-1212.158935546875	-381.5799255371094	1004.088928222656	-1115.59521484375	-342.4390258789063	991.3483886718752	-1171.00634765625	-324.5379028320313	1013.973876953125	-1082.263916015625	-371.9751892089844	1506.66064453125	-700.7506103515626	-460.1567993164064	1341.270141601563	-573.0952148437501	-427.3432922363282	1302.933715820313	-570.7437744140626	-472.3767395019532	1280.640502929688	-538.9843139648439	-467.7889709472657	1218.914916992188	-522.5564575195314	-533.3436279296876	1206.07568359375	-579.4136352539064	-389.9919738769532	1008.072326660156	-688.3071899414064	-370.1341552734376	979.7031860351565	-623.9020385742189	-324.0155334472657	999.8565063476565	-720.5421142578126	-283.5030517578126	1028.638793945313	-1015.796997070313	-278.6570434570313	1006.292663574219	-798.419128417969	-448.5742492675782	1079.956909179688	-900.4206542968752	-455.5039367675782	1048.528686523438	-927.506774902344	-452.6741027832032	1050.55029296875	-870.887634277344	-404.1239318847657	808.181823730469	-1102.087158203125	-380.3252563476563	726.8734130859376	-1104.309326171875	-333.5528564453126	723.7529907226564	-1094.798095703125	-415.4136352539064	678.0187377929689	-1094.408813476563	-421.5825805664064	517.3087158203126	-1088.599975585938	-410.8046875000001	500.6980590820314	-968.688659667969	-400.5729064941407	337.5269165039063	-1035.853515625	-430.196990966797	297.5885620117188	-1110.322631835938	-398.4584045410157	293.5928649902344	-1075.95849609375	-410.5865783691407	212.4373168945313	-1053.714477539063	-461.4924926757814	95.59335327148439	-1109.188354492188	-439.7176513671876	99.48476409912112	-1025.225219726563	-516.8100585937501	48.15600204467775	-1063.166015625	-300.2955627441407	61.57886505126955	-1049.901245117188	-302.7122802734376	61.63085174560548	-1095.860107421875	-339.9277038574219	41.74095916748048	-1141.892333984375	-394.259735107422	755.9699707031251	-714.5319824218751	-357.8963317871094	698.9141845703126	-709.6124877929689	-325.6187133789063	698.2984619140626	-717.0852661132814	-389.7398376464845	620.6712036132814	-720.8336181640626	-403.2031555175782	505.949676513672	-724.8284301757814	-412.2939453125001	492.984344482422	-847.7083129882815	-368.7734680175782	375.5102539062501	-742.8598022460939	-441.4003906250001	311.2011108398438	-689.5790405273439	-399.9315795898439	300.8908996582032	-707.6661987304689	-393.043670654297	248.4195251464844	-729.9955444335939	-463.4292907714845	96.33199310302737	-704.5078125000001	-442.856414794922	99.54024505615237	-787.0601196289065	-515.8855590820314	48.00129699707033	-745.8804321289064	-304.4498901367188	62.84370422363283	-762.9754028320314	-299.9204406738282	60.43677139282228	-726.4573364257814	-334.3733520507813	40.52191543579102	-672.2984619140626	nan	nan	nan	nan	nan	nan	
178	0.885	-228.5083007812501	1755.743530273438	-883.4375000000002	-358.0166320800782	1723.673706054688	-968.7739868164065	-410.1029663085939	1705.903930664063	-811.992858886719	-437.2391052246095	1534.51806640625	-901.5604248046877	-469.5836486816407	1233.13232421875	-907.8754882812502	-301.5462951660157	1485.78466796875	-892.1070556640627	-337.7668151855469	1531.859008789063	-1075.4306640625	-413.8217163085939	1360.351928710938	-1219.619750976563	-381.4311218261719	1321.732177734375	-1213.988891601563	-424.832000732422	1299.528076171875	-1250.840576171875	-423.9118041992189	1240.376098632813	-1265.1630859375	-490.2239685058595	1232.884887695313	-1212.162719726563	-381.4992980957032	1004.089111328125	-1115.610717773438	-342.4282226562501	991.3812255859377	-1171.00244140625	-324.5229187011719	1013.999450683594	-1082.262084960938	-371.9117736816407	1506.655639648438	-700.7559814453126	-460.1501464843751	1341.227661132813	-573.1593017578126	-427.3497009277345	1302.833251953125	-570.7799682617189	-472.370330810547	1280.642944335938	-539.0374755859376	-467.7608642578126	1218.88623046875	-522.6041870117189	-533.3159179687501	1206.048828125	-579.4324951171876	-390.0096130371095	1008.082397460938	-688.3100585937501	-370.0979919433594	979.610046386719	-623.8262939453126	-323.9601745605469	999.8339843750002	-720.5603637695314	-283.4943237304688	1028.611083984375	-1015.791137695313	-278.6230773925782	1006.318237304688	-798.3652343750002	-448.5698242187501	1079.9423828125	-900.4141235351565	-455.514373779297	1048.50830078125	-927.5052490234377	-452.5809326171876	1050.499389648438	-870.8812255859377	-404.0457153320314	808.129333496094	-1102.096923828125	-380.2442016601563	726.8471069335939	-1104.311279296875	-333.5572814941407	723.7223510742189	-1094.800048828125	-415.4185485839845	678.0083618164064	-1094.41015625	-421.5780639648439	517.3239135742189	-1088.598266601563	-410.8385620117189	500.6649169921876	-968.7164306640627	-400.5780334472657	337.5391540527344	-1035.853515625	-430.1915283203126	297.6197814941407	-1110.310546875	-398.4116516113282	293.5543823242188	-1075.964965820313	-410.6257629394532	212.403060913086	-1053.74267578125	-461.5684509277345	95.55410003662111	-1109.169555664063	-439.7110290527345	99.53808593750003	-1025.201049804688	-516.8500366210939	48.07331466674806	-1063.154296875	-300.1829833984376	61.37028884887697	-1049.479614257813	-302.6754455566407	61.62904739379884	-1095.95166015625	-339.9225769042969	41.65593338012696	-1141.90380859375	-394.2391967773439	755.9927368164064	-714.5336914062501	-357.8551330566407	698.9285888671876	-709.6358032226564	-325.6177368164063	698.3038940429689	-717.0765380859376	-389.7034912109376	620.6688232421876	-720.8231811523439	-403.1690673828126	505.9469299316407	-724.8720092773439	-412.2573852539064	492.9940185546876	-847.7673950195315	-368.7975769042969	375.5636901855469	-742.8300781250001	-441.3873596191407	311.1760253906251	-689.5726318359376	-399.9297790527345	300.8441162109376	-707.6961059570314	-393.051483154297	248.4554290771485	-729.9653930664064	-463.3805236816407	96.31343841552737	-704.5619506835939	-442.8395385742189	99.55606842041018	-787.081726074219	-515.8706054687501	47.97545623779298	-745.8837280273439	-304.4127807617188	62.8945999145508	-763.0039672851564	-299.9039001464844	60.43493652343751	-726.5399780273439	-334.3383178710938	40.46053695678712	-672.3571166992189	nan	nan	nan	nan	nan	nan	
179	0.89	-228.6288452148438	1755.844116210938	-883.3179931640627	-357.9887695312501	1723.690185546875	-968.774841308594	-410.1431274414064	1705.91455078125	-812.0059814453127	-437.2024536132814	1534.508911132813	-901.6306152343752	-469.4695434570314	1233.093994140625	-907.8640136718752	-301.4946899414063	1485.782348632813	-892.1068115234377	-337.7956237792969	1531.845581054688	-1075.466064453125	-413.8928527832032	1360.279052734375	-1219.661254882813	-381.5036926269532	1321.752685546875	-1213.92236328125	-424.8928833007814	1299.486572265625	-1250.859741210938	-423.9418029785157	1240.361450195313	-1265.153076171875	-490.2423706054689	1232.886108398438	-1212.166259765625	-381.4211120605469	1004.0458984375	-1115.606079101563	-342.4194335937501	991.3170166015627	-1170.999633789063	-324.4764709472657	1014.001037597656	-1082.276977539063	-371.8912353515626	1506.619995117188	-700.7369995117189	-460.153778076172	1341.229370117188	-573.1293945312501	-427.3014221191407	1302.853271484375	-570.8162841796876	-472.3748779296876	1280.75244140625	-539.0562744140626	-467.7651977539064	1218.916015625	-522.6317749023439	-533.2528076171876	1206.074951171875	-579.4946899414064	-389.8929443359376	1008.038452148438	-688.3092041015626	-370.0876159667969	979.6614990234377	-623.8566284179689	-323.9478454589844	999.7811279296877	-720.5440673828126	-283.2152404785157	1028.9482421875	-1015.659484863281	-278.6208190917969	1006.3037109375	-798.386657714844	-448.5082397460939	1079.928588867188	-900.4011230468752	-455.5466308593751	1048.476684570313	-927.493103027344	-452.4947814941407	1050.49560546875	-870.877380371094	-404.0226440429689	808.2032470703127	-1102.042358398438	-380.2683105468751	726.8944091796876	-1104.31103515625	-333.4460144042969	723.7580566406251	-1094.7861328125	-415.2978820800782	677.9779052734376	-1094.442626953125	-421.5616760253907	517.3016967773439	-1088.596923828125	-410.8438110351564	500.6719970703126	-968.718444824219	-400.5797119140626	337.5400390625001	-1035.855102539063	-430.1272888183595	297.5974426269532	-1110.360595703125	-398.3692321777345	293.9338073730469	-1075.960083007813	-410.5865173339845	212.4425048828126	-1053.716918945313	-461.4968566894532	95.54665374755861	-1109.140502929688	-439.7033996582032	99.51569366455081	-1025.198120117188	-516.8731689453126	48.03585052490236	-1063.157592773438	-300.3123168945313	61.63035964965822	-1049.888427734375	-302.7085876464844	61.61573791503908	-1095.913208007813	-339.7992858886719	41.74972152709962	-1141.864624023438	-394.2258911132814	755.9749145507814	-714.5770263671876	-357.8494567871094	698.9254150390626	-709.6312866210939	-325.6098327636719	698.2356567382814	-717.2581176757814	-389.6966552734376	620.6622314453126	-720.8120727539064	-403.1521911621095	505.9713134765626	-724.8462524414064	-412.2525634765626	492.9397277832032	-847.7353515625002	-368.7974243164063	375.5728454589844	-742.8223266601564	-441.3609313964845	311.1773376464844	-689.5899658203126	-399.893768310547	300.9201660156251	-707.6763305664064	-393.0093078613282	248.4267883300782	-729.9572753906251	-463.4064025878907	96.35250091552737	-704.5263671875001	-442.8905334472657	99.53630065917972	-787.102233886719	-515.9089355468751	47.98994827270509	-745.8572998046876	-304.4607849121094	62.88918685913087	-762.9872436523439	-299.8713684082032	60.43705368041994	-726.5297241210939	-334.3688964843751	40.3951759338379	-672.3574218750001	nan	nan	nan	nan	nan	nan	
180	0.895	-228.7118072509766	1755.889526367188	-883.2842407226565	-358.0783691406251	1723.700561523438	-968.8022460937502	-410.1414794921876	1705.90087890625	-812.0241699218752	-437.1312255859376	1534.49755859375	-901.6345214843752	-469.4741821289064	1233.0986328125	-907.870544433594	-301.4584350585938	1485.961303710938	-892.1535644531252	-337.7773742675782	1531.82421875	-1075.492065429688	-413.8424682617189	1360.290283203125	-1219.670288085938	-381.4558105468751	1321.7294921875	-1213.96728515625	-424.8762817382814	1299.452392578125	-1250.844970703125	-423.8093872070314	1240.31982421875	-1265.175048828125	-490.2415466308595	1232.853515625	-1212.1708984375	-381.4284362792969	1004.083923339844	-1115.628051757813	-342.3370361328126	991.3201904296877	-1170.981323242188	-324.4690856933594	1014.001403808594	-1082.277465820313	-371.8777465820313	1506.618774414063	-700.7650146484376	-460.0627746582032	1341.185180664063	-573.1799926757814	-427.2125549316407	1302.793334960938	-570.8543701171876	-472.2998352050782	1280.626586914063	-539.0597534179689	-467.7082519531251	1218.9140625	-522.6318969726564	-533.2480468750001	1206.041748046875	-579.4781494140626	-389.9304504394532	1008.080871582031	-688.3228759765626	-370.0617980957032	979.5723266601565	-623.8059082031251	-323.9049682617188	999.767272949219	-720.5129394531251	-283.5186157226563	1028.598266601563	-1015.713989257813	-278.5730285644532	1006.285522460938	-798.361755371094	-448.4933471679689	1079.928466796875	-900.4438476562502	-455.5062255859376	1048.44873046875	-927.5538330078127	-452.3858947753907	1050.40869140625	-870.9048461914065	-404.0137939453126	808.1865234375002	-1102.069458007813	-380.2595825195313	726.8652954101564	-1104.379028320313	-333.4876098632813	723.7513427734376	-1094.807739257813	-415.3850708007814	678.0380859375001	-1094.446166992188	-421.5039062500001	517.2670288085939	-1088.6064453125	-410.8094177246095	500.7108154296876	-968.7171020507815	-400.5726623535157	337.5385742187501	-1035.843383789063	-430.1400756835939	297.6400146484376	-1110.348266601563	-398.4172973632814	293.9237365722657	-1075.993408203125	-410.606658935547	212.4104003906251	-1053.7158203125	-461.4840698242189	95.59082031250001	-1109.195068359375	-439.7056579589845	99.50479888916018	-1025.164794921875	-516.6086425781251	47.48163223266602	-1062.778686523438	-300.1672363281251	61.32257461547853	-1049.49755859375	-302.7169494628907	61.62917327880861	-1095.861206054688	-339.8567504882813	41.74694442749024	-1141.89599609375	-394.1789855957032	755.9671630859376	-714.5898437500001	-357.8184814453126	698.9085693359376	-709.6087036132814	-325.5705871582032	698.2556762695314	-717.0856323242189	-389.7104797363282	620.6903076171876	-720.8461303710939	-403.1013793945314	505.9213256835939	-724.8002929687501	-412.2077941894532	492.9675292968751	-847.716003417969	-368.7219543457032	375.5852966308594	-742.8433227539064	-441.3677062988282	311.2055358886719	-689.5396728515626	-399.8775024414064	300.8511047363282	-707.6315917968751	-392.9928283691407	248.4428100585938	-729.9431762695314	-463.3555603027345	96.30741119384768	-704.5360107421876	-442.8461914062501	99.51630401611331	-787.110290527344	-515.8859863281251	47.96382522583009	-745.8716430664064	-304.4508056640626	62.84891510009767	-763.0238647460939	-299.9397583007813	60.50060653686525	-726.5050048828126	-334.3267822265626	40.53557968139649	-672.2796020507814	nan	nan	nan	nan	nan	nan	
